<?xml version="1.0" encoding="UTF-8"?>
<svg version="1.1" xmlns="http://www.w3.org/2000/svg" width="512" height="512">
<path d="M0 0 C0.82765869 -0.01283524 1.65531738 -0.02567047 2.50805664 -0.03889465 C3.39356201 -0.04628159 4.27906738 -0.05366852 5.19140625 -0.0612793 C6.10849365 -0.06935104 7.02558105 -0.07742279 7.97045898 -0.08573914 C9.90704472 -0.09954923 11.84365449 -0.11028509 13.78027344 -0.11816406 C16.74330279 -0.13543624 19.70523287 -0.17935598 22.66796875 -0.22338867 C24.55077306 -0.23351117 26.43358683 -0.24202865 28.31640625 -0.2487793 C29.64466431 -0.27504143 29.64466431 -0.27504143 30.99975586 -0.30183411 C37.11002221 -0.28023583 37.11002221 -0.28023583 40.34375 2.01611328 C41.75390625 4.17700195 41.75390625 4.17700195 41.75390625 7.17700195 C48.02390625 7.17700195 54.29390625 7.17700195 60.75390625 7.17700195 C61.41390625 5.52700195 62.07390625 3.87700195 62.75390625 2.17700195 C65.22495805 -0.29404985 66.63487126 -0.06729195 70.00753486 -0.09980905 C71.11294771 -0.09516324 71.11294771 -0.09516324 72.24069214 -0.09042358 C73.41274364 -0.09722025 73.41274364 -0.09722025 74.60847294 -0.10415423 C77.24148254 -0.11687088 79.8742872 -0.11517316 82.50732422 -0.11352539 C84.38960539 -0.11950652 86.27188409 -0.1263111 88.15415955 -0.13388062 C93.28072944 -0.15160014 98.40723262 -0.15623877 103.53383017 -0.15751219 C107.81502716 -0.15940919 112.09620856 -0.16676529 116.37739956 -0.17385638 C126.48630823 -0.19016407 136.59518126 -0.19502354 146.70410156 -0.19360352 C157.11838603 -0.19240462 167.5324624 -0.21345046 177.94669425 -0.24509084 C186.89208093 -0.2712964 195.83739989 -0.28196886 204.78282464 -0.2806927 C210.12311167 -0.28018389 215.46321428 -0.2858209 220.80346298 -0.3070488 C225.83499797 -0.32650063 230.86617415 -0.32650826 235.89772224 -0.31201553 C237.73745438 -0.30993423 239.57720935 -0.31458756 241.41690254 -0.32673645 C258.36401578 -0.43133309 270.73442624 2.64210693 283.50390625 14.48950195 C294.3791018 25.98027461 296.20828573 38.68665346 296.15795898 53.90112305 C296.16367132 55.46931949 296.17063891 57.03751179 296.17875671 58.60569763 C296.19660891 62.83930787 296.19553467 67.07270994 296.18981433 71.30634642 C296.18671062 74.85229547 296.19282809 78.39820522 296.19885308 81.94414866 C296.21287093 90.31574539 296.21136018 98.68724002 296.19995117 107.05883789 C296.18847537 115.66923372 296.20254279 124.27931787 296.22934765 132.88967264 C296.25156495 140.30658313 296.2581284 147.72339621 296.25227123 155.14033759 C296.24891451 159.55941781 296.25123054 163.97829836 296.26852226 168.39735031 C296.28408567 172.5557293 296.27993284 176.7136497 296.26121712 180.87201118 C296.25755691 182.38923243 296.26056385 183.90648838 296.27110291 185.42367744 C296.36523116 200.10673573 293.321786 211.83292941 283.31640625 222.86450195 C282.47078125 223.62762695 281.62515625 224.39075195 280.75390625 225.17700195 C280.26535156 225.65782227 279.77679688 226.13864258 279.2734375 226.6340332 C269.19898548 236.08631004 256.28069052 238.51091585 242.90625 238.3449707 C241.06575002 238.35064453 239.22525424 238.357852 237.38476562 238.36645508 C234.53193179 238.37063128 231.68054367 238.36437693 228.82788086 238.33154297 C216.34757684 237.73760591 216.34757684 237.73760591 205.25 242.4543457 C204.04490752 243.65668648 202.87260954 244.89389082 201.75390625 246.17700195 C200.86960937 246.94786133 199.9853125 247.7187207 199.07421875 248.51293945 C198.34976562 249.18583008 197.6253125 249.8587207 196.87890625 250.55200195 C193.46339077 253.67234943 189.98326485 256.65194331 186.37890625 259.55200195 C182.36565716 262.79651601 178.52961445 266.16433293 174.75390625 269.67700195 C170.06330729 274.03955514 165.22486808 278.15351967 160.23046875 282.16918945 C158.0469261 283.93944327 155.9253607 285.75682718 153.81640625 287.61450195 C148.45829066 292.09782316 144.73196747 292.69179103 137.80078125 292.5480957 C133.25975055 291.99502145 129.86234331 290.5680242 126.75390625 287.17700195 C123.05776223 281.3943642 122.15451696 276.42129932 122.14453125 269.64575195 C122.127995 268.76922974 122.11145874 267.89270752 122.09442139 266.98962402 C122.04624122 264.21867661 122.02463778 261.44827672 122.00390625 258.67700195 C121.97572141 256.78634985 121.94579049 254.89572292 121.9140625 253.00512695 C121.83723551 248.39550737 121.79643919 243.78757252 121.75390625 239.17700195 C111.19390625 238.84700195 100.63390625 238.51700195 89.75390625 238.17700195 C89.42390625 240.15700195 89.09390625 242.13700195 88.75390625 244.17700195 C87.44921875 246.80981445 87.44921875 246.80981445 85.87890625 249.30200195 C85.36585938 250.12958008 84.8528125 250.9571582 84.32421875 251.80981445 C82.87321106 253.99715441 81.3543893 256.09733236 79.75390625 258.17700195 C80.57890625 258.21825195 81.40390625 258.25950195 82.25390625 258.30200195 C90.12887494 260.27074412 96.07852641 266.77780832 100.75390625 273.17700195 C105.45591209 281.51315882 106.06005734 291.15861461 103.56640625 300.30200195 C101.46109821 306.64785936 97.88216037 311.96236517 93.75390625 317.17700195 C94.31078125 317.38454102 94.86765625 317.59208008 95.44140625 317.8059082 C103.93118582 321.23336989 111.49737368 326.87353879 115.75390625 335.17700195 C119.93223277 346.41467853 119.72551115 356.19959865 114.75390625 367.17700195 C109.46811212 375.01587086 102.66072317 381.54754121 95.984375 388.17700195 C94.8553725 389.30480969 93.72674234 390.43299027 92.59846497 391.56152344 C90.25077653 393.90765907 87.89980167 396.25043069 85.54614258 398.59057617 C82.52693795 401.59266467 79.51448635 404.60142235 76.50420666 407.61245728 C74.18228942 409.9341032 71.8577806 412.25313917 69.53237343 414.57128906 C68.41977454 415.68070541 67.30778059 416.79072879 66.1964016 417.90136719 C64.65060646 419.4450016 63.1015695 420.98530382 61.55151367 422.5246582 C60.67105881 423.40130127 59.79060394 424.27794434 58.88346863 425.18115234 C56.75390625 427.17700195 56.75390625 427.17700195 54.75390625 428.17700195 C54.09519531 428.08161133 53.43648438 427.9862207 52.7578125 427.88793945 C48.07011454 427.24291221 45.57832896 427.60892959 41.61328125 430.34106445 C36.13510228 435.08895663 36.13510228 435.08895663 33.390625 441.51293945 C33.77203729 443.83625409 33.77203729 443.83625409 34.75390625 447.17700195 C32.68859941 451.70580982 29.2679943 454.96938944 25.79296875 458.4387207 C25.20655609 459.02941849 24.62014343 459.62011627 24.01596069 460.22871399 C22.77279348 461.47761079 21.52701517 462.72391321 20.27880859 463.96777344 C18.41092401 465.83253768 16.55666154 467.71009917 14.703125 469.58911133 C-13.23098765 497.67340613 -45.83794137 512.3689469 -85.59396362 512.49642944 C-97.53403402 512.49458687 -108.73026412 511.45530948 -120.24609375 508.17700195 C-120.91302246 507.99508301 -121.57995117 507.81316406 -122.26708984 507.62573242 C-142.37390718 502.01907192 -159.86446645 491.04874686 -175.24609375 477.17700195 C-176.18582031 476.33395508 -177.12554687 475.4909082 -178.09375 474.62231445 C-190.43709212 462.9360999 -199.41378121 448.65562452 -206.24609375 433.17700195 C-206.96732422 431.54698242 -206.96732422 431.54698242 -207.703125 429.8840332 C-218.56169994 403.4757165 -219.90835553 371.59639267 -212.24609375 344.17700195 C-211.941875 342.96786133 -211.63765625 341.7587207 -211.32421875 340.51293945 C-206.8978852 325.15696691 -198.2642844 305.89372 -187.24609375 294.17700195 C-185.27351189 294.02044784 -183.29494742 293.86471601 -181.31640625 293.89575195 C-177.91588831 292.71519478 -176.47982028 289.80583778 -174.68359375 286.86450195 C-174.32467041 286.2820874 -173.96574707 285.69967285 -173.59594727 285.09960938 C-172.18851619 282.62142131 -171.17879119 280.83842366 -171.47265625 277.95043945 C-171.72789062 277.36520508 -171.983125 276.7799707 -172.24609375 276.17700195 C-173.31115281 272.69780903 -173.69058854 270.26193209 -172.2890625 266.84106445 C-170.68718249 263.90207798 -168.9666822 261.0481253 -167.24609375 258.17700195 C-166.54272062 256.87594562 -165.84644083 255.57103653 -165.15625 254.26293945 C-158.47870035 241.70218445 -151.58321472 231.08503406 -137.359375 226.5793457 C-126.39817699 224.49246327 -116.71492413 226.4687249 -107.34375 232.3762207 C-101.30474557 237.00151417 -97.00227348 243.80383467 -95.24609375 251.17700195 C-95.0317633 253.90272616 -95.09927366 256.43636026 -95.24609375 259.17700195 C-85.95662999 251.24223005 -77.21684219 242.72346345 -68.49245262 234.17905045 C-65.78213548 231.52562802 -63.06053445 228.88643398 -60.30908203 226.27563477 C-57.62547775 223.72854881 -54.97529731 221.15071987 -52.3452034 218.54845428 C-51.34441028 217.56905362 -50.33242506 216.60094774 -49.30912399 215.6450882 C-47.8810541 214.30710307 -46.49677241 212.92284659 -45.11474609 211.53735352 C-43.91850113 210.37988617 -43.91850113 210.37988617 -42.6980896 209.19903564 C-40.72760135 205.0978656 -41.66706091 202.70285881 -42.64663696 198.3664341 C-43.78158577 192.32789673 -43.53270374 186.19823272 -43.52075195 180.07373047 C-43.52510876 178.5842056 -43.53029511 177.09468296 -43.53623962 175.60516357 C-43.54953546 171.59064882 -43.55021898 167.57622874 -43.54767632 163.56169629 C-43.54660037 160.19713342 -43.55150574 156.83258923 -43.55628175 153.46803039 C-43.56734395 145.52457092 -43.56783264 137.58115875 -43.56176758 129.63769531 C-43.55572753 121.47096606 -43.56804715 113.30440908 -43.58933765 105.1377092 C-43.60700652 98.09870583 -43.61294678 91.05975705 -43.6096999 84.02073234 C-43.60789562 79.82861412 -43.61043734 75.63661887 -43.62441444 71.44452095 C-43.637075 67.50041969 -43.63497181 63.55658539 -43.62200356 59.61248779 C-43.61965617 58.17427921 -43.62230562 56.73605134 -43.63062668 55.29786491 C-43.71378848 39.79343601 -40.8036703 25.53444836 -29.99609375 13.7980957 C-21.89491901 6.29365928 -11.29036591 0.15326537 0 0 Z " fill="#FC7F86" transform="translate(216.24609375,-0.177001953125)"/>
<path d="M0 0 C4.12883811 1.80295199 7.41460718 4.2622595 9.83984375 8.08984375 C11.69680378 12.99630694 11.69274483 18.24479743 10.69140625 23.33984375 C7.53583426 29.75468153 2.82095219 34.62534572 -2.2199707 39.59179688 C-3.00098648 40.37325073 -3.78200226 41.15470459 -4.58668518 41.95983887 C-7.14969636 44.5207732 -9.72314205 47.07093889 -12.296875 49.62109375 C-14.08400375 51.40262265 -15.87046786 53.1848185 -17.65629578 54.96765137 C-21.86510792 59.16621026 -26.08054221 63.3580412 -30.29929656 67.54660368 C-35.1057721 72.31943254 -39.90363179 77.10088319 -44.70082152 81.88304234 C-54.5605871 91.71153327 -64.43101115 101.52926128 -74.30859375 111.33984375 C-78.18359375 109.46484375 -78.18359375 109.46484375 -79.30859375 108.33984375 C-83.96911779 107.91592218 -83.96911779 107.91592218 -88.24609375 109.46484375 C-89.94121641 112.45623667 -89.95266564 113.92626274 -89.30859375 117.33984375 C-84.89748512 123.3712977 -79.20499009 128.58713028 -73.92651367 133.85131836 C-73.11915771 134.66042664 -72.31180176 135.46953491 -71.47998047 136.30316162 C-68.83550184 138.95200882 -66.18742154 141.59722043 -63.5390625 144.2421875 C-61.69283172 146.08909236 -59.84674936 147.93614561 -58.00080872 149.78334045 C-54.14531812 153.64064246 -50.28774102 157.49584833 -46.42895508 161.34985352 C-41.96728436 165.80606038 -37.50925864 170.26588944 -33.05306357 174.72757143 C-28.75660518 179.02910783 -24.4573489 183.32783621 -20.15688515 187.62536812 C-18.32962885 189.45195605 -16.50311864 191.27929065 -14.67735863 193.10737419 C-12.13521182 195.65204805 -9.58990334 198.1935157 -7.04370117 200.73413086 C-5.90681602 201.87405235 -5.90681602 201.87405235 -4.7469635 203.03700256 C-4.05595551 203.72519073 -3.36494751 204.41337891 -2.65299988 205.12242126 C-2.05186465 205.72317946 -1.45072943 206.32393766 -0.83137798 206.94290066 C1.60450602 209.17748601 2.72706079 209.34243681 6.12890625 209.58984375 C9.54916418 209.61258034 9.54916418 209.61258034 11.62890625 208.21484375 C13.1956287 205.45003942 13.0811706 203.45795858 12.69140625 200.33984375 C11.7112025 199.32043185 10.71337617 198.31738019 9.69140625 197.33984375 C9.98603886 193.26954619 12.41479499 191.23609572 15.19189453 188.45117188 C15.65872147 187.97908798 16.1255484 187.50700409 16.60652161 187.02061462 C18.15079571 185.46314633 19.70577707 183.91689964 21.26171875 182.37109375 C22.34255135 181.28823924 23.42293836 180.2049398 24.50289917 179.12121582 C26.76954467 176.85014689 29.04152737 174.58459229 31.31738281 172.32275391 C34.22258864 169.43457849 37.11419948 166.53322696 40.00187874 163.62754059 C42.23218808 161.38634154 44.46965494 159.15239767 46.70928574 156.92051697 C47.77751293 155.85428066 48.84354484 154.78583998 49.90726089 153.71510315 C62.49868254 141.05889851 62.49868254 141.05889851 69.7890625 139.80859375 C75.90650134 139.87307268 80.00168692 139.99327462 84.69140625 144.33984375 C89.20273525 148.94978104 90.7899269 152.64836871 91.12890625 159.02734375 C90.84536336 169.64003067 81.57900558 176.81137487 74.42683792 183.73821068 C72.69562775 185.41659027 70.97583163 187.1059506 69.25863647 188.79866028 C64.38098559 193.60347678 59.48613744 198.39050018 54.57861328 203.16479492 C51.56344082 206.09963118 48.56304024 209.04891395 45.57123947 212.00756264 C44.43257347 213.12763268 43.28824966 214.24198149 42.13820267 215.35036278 C40.53477863 216.89612552 38.95071517 218.45951891 37.36962891 220.02807617 C36.01111313 221.35303352 36.01111313 221.35303352 34.62515259 222.70475769 C32.29622047 225.87835726 32.23340692 227.48836388 32.69140625 231.33984375 C32.90925781 232.06719727 33.12710937 232.79455078 33.3515625 233.54394531 C33.46371094 234.1365918 33.57585937 234.72923828 33.69140625 235.33984375 C31.22944629 237.96693517 28.67972963 240.26696657 25.91796875 242.56640625 C24.23401758 244.09223994 22.88421417 245.40153088 21.69140625 247.33984375 C21.62639348 250.1110129 22.20895871 252.58769983 22.69140625 255.33984375 C20.60577232 259.8665427 17.21094601 263.12678847 13.73046875 266.6015625 C13.14405609 267.19226028 12.55764343 267.78295807 11.95346069 268.39155579 C10.71029348 269.64045259 9.46451517 270.886755 8.21630859 272.13061523 C6.34842401 273.99537948 4.49416154 275.87294097 2.640625 277.75195312 C-25.29348765 305.83624792 -57.90044137 320.53178869 -97.65646362 320.65927124 C-109.59653402 320.65742866 -120.79276412 319.61815127 -132.30859375 316.33984375 C-132.97552246 316.1579248 -133.64245117 315.97600586 -134.32958984 315.78857422 C-154.43640718 310.18191372 -171.92696645 299.21158865 -187.30859375 285.33984375 C-188.24832031 284.49679687 -189.18804687 283.65375 -190.15625 282.78515625 C-202.49959212 271.09894169 -211.47628121 256.81846632 -218.30859375 241.33984375 C-218.78941406 240.25316406 -219.27023438 239.16648437 -219.765625 238.046875 C-230.62419994 211.6385583 -231.97085553 179.75923447 -224.30859375 152.33984375 C-223.85226563 150.52613281 -223.85226563 150.52613281 -223.38671875 148.67578125 C-219.68979147 135.85028739 -212.94468181 123.85586091 -206.30859375 112.33984375 C-205.75010742 111.36611816 -205.19162109 110.39239258 -204.61621094 109.38916016 C-200.38922779 102.64109206 -200.38922779 102.64109206 -197.24438477 101.7644043 C-196.55272217 101.73773682 -195.86105957 101.71106934 -195.1484375 101.68359375 C-191.42107027 101.78155436 -191.42107027 101.78155436 -189.97705078 99.90625 C-188.8325236 97.9224705 -187.83771457 95.91590057 -186.87109375 93.83984375 C-183.11286356 86.64610543 -183.11286356 86.64610543 -179.94921875 85.44140625 C-177.62109375 85.46484375 -177.62109375 85.46484375 -175.50024414 85.64550781 C-173.1940677 85.55742994 -173.1940677 85.55742994 -171.78588867 83.71923828 C-171.33318604 82.97786621 -170.8804834 82.23649414 -170.4140625 81.47265625 C-169.90383545 80.65071777 -169.3936084 79.8287793 -168.86791992 78.98193359 C-168.35334229 78.11004395 -167.83876465 77.2381543 -167.30859375 76.33984375 C-166.81141846 75.50275879 -166.31424316 74.66567383 -165.80200195 73.80322266 C-163.78148605 70.36467915 -161.77847895 66.91703748 -159.80859375 63.44921875 C-155.99797165 56.939406 -151.96964479 51.39524769 -144.30859375 49.33984375 C-138.35487229 48.66583755 -134.14587774 49.97137069 -129.30859375 53.33984375 C-124.70419623 57.72498424 -122.20417216 61.41886876 -121.93359375 67.90234375 C-122.16776409 79.28216288 -131.17572728 89.88551537 -136.95703125 99.23828125 C-143.50540062 109.73345449 -143.50540062 109.73345449 -145.74609375 121.71484375 C-145.77509766 122.96394531 -145.77509766 122.96394531 -145.8046875 124.23828125 C-144.15224196 134.56931874 -137.91184794 144.00353714 -132.99804688 153.0625 C-126.2236012 165.79877042 -122.60913586 178.19680351 -126.43359375 192.65234375 C-129.10450212 200.15573285 -133.19967427 206.30077297 -138.68359375 212.02734375 C-141.49953864 215.06942571 -142.24769164 215.9965773 -142.99609375 220.21484375 C-142.49614638 223.24334578 -142.49614638 223.24334578 -141.18359375 225.27734375 C-138.19220083 226.97246641 -136.72217476 226.98391564 -133.30859375 226.33984375 C-121.41489553 219.10020136 -115.02576083 204.76774258 -111.78613281 191.75585938 C-110.98077355 187.68130147 -110.72724657 183.67478143 -110.68359375 179.52734375 C-110.6671582 178.43667603 -110.6671582 178.43667603 -110.65039062 177.32397461 C-111.01383397 163.26404348 -118.25026037 150.98218342 -124.69238281 138.90112305 C-125.79203376 136.82912652 -126.87137851 134.74746721 -127.94921875 132.6640625 C-128.286651 132.04617355 -128.62408325 131.42828461 -128.97174072 130.79167175 C-131.24341725 126.37203822 -132.55736674 122.21891361 -131.30859375 117.33984375 C-126.89833813 109.40681233 -120.46229653 103.06395677 -114.078125 96.72119141 C-113.06321398 95.70220472 -112.04893994 94.68258327 -111.0352478 93.66238403 C-108.30668169 90.92026203 -105.56885818 88.1875691 -102.82873154 85.45700502 C-99.95006621 82.58599138 -97.07879119 79.70760107 -94.20629883 76.83041382 C-89.38672415 72.00540015 -84.56090116 67.186704 -79.73144531 62.37158203 C-74.15839718 56.81488462 -68.59627567 51.24742528 -63.03965092 45.67430842 C-58.25261292 40.87363566 -53.45972768 36.07885956 -48.6619482 31.28892171 C-45.80322693 28.43486243 -42.94653557 25.57885056 -40.09512329 22.71748734 C-37.41618694 20.02985358 -34.72995763 17.34972449 -32.03804398 14.67509079 C-31.0547144 13.69571006 -30.07389546 12.71380071 -29.09586716 11.72912598 C-20.40354371 2.98321566 -12.9860735 -3.71344572 0 0 Z " fill="#FCD0A3" transform="translate(228.30859375,191.66015625)"/>
<path d="M0 0 C0.82765869 -0.01283524 1.65531738 -0.02567047 2.50805664 -0.03889465 C3.39356201 -0.04628159 4.27906738 -0.05366852 5.19140625 -0.0612793 C6.10849365 -0.06935104 7.02558105 -0.07742279 7.97045898 -0.08573914 C9.90704472 -0.09954923 11.84365449 -0.11028509 13.78027344 -0.11816406 C16.74330279 -0.13543624 19.70523287 -0.17935598 22.66796875 -0.22338867 C24.55077306 -0.23351117 26.43358683 -0.24202865 28.31640625 -0.2487793 C29.64466431 -0.27504143 29.64466431 -0.27504143 30.99975586 -0.30183411 C37.12015856 -0.28020001 37.12015856 -0.28020001 40.30859375 2.02001953 C42.31827146 5.01925984 42.40433312 6.63578901 41.75390625 10.17700195 C38.9772943 13.82743397 37.51608996 15.05497075 32.93261719 15.78881836 C31.45131313 15.80955922 29.96949936 15.80473334 28.48828125 15.77856445 C27.69544739 15.78657074 26.90261353 15.79457703 26.08575439 15.80282593 C23.55794863 15.82583647 21.03175404 15.8164716 18.50390625 15.80200195 C-0.74039452 15.39669594 -0.74039452 15.39669594 -17.02734375 24.89575195 C-25.70829464 34.16524189 -26.8322232 42.71084261 -26.70019531 55.15185547 C-26.69906527 56.65070058 -26.69970375 58.1495479 -26.70196533 59.64839172 C-26.70310731 63.69338125 -26.67968253 67.73789088 -26.6516695 71.78276944 C-26.62656905 76.01880502 -26.62430706 80.25485307 -26.61956787 84.49095154 C-26.60716338 92.50184907 -26.57437622 100.51252678 -26.53416991 108.52332777 C-26.48937327 117.64787832 -26.46744536 126.77243967 -26.44738817 135.89707291 C-26.40564117 154.65717362 -26.33533858 173.41707008 -26.24609375 192.17700195 C-25.65151367 191.56139404 -25.05693359 190.94578613 -24.44433594 190.31152344 C-23.25565918 189.09831421 -23.25565918 189.09831421 -22.04296875 187.8605957 C-21.26276367 187.05936279 -20.48255859 186.25812988 -19.67871094 185.43261719 C-16.23436612 182.23888959 -12.50161679 180.11062465 -8.24609375 178.17700195 C-7.49199219 177.81219727 -6.73789063 177.44739258 -5.9609375 177.0715332 C2.06456256 174.4271598 12.94786565 175.12561475 20.51953125 178.80981445 C30.16897532 184.71419457 34.35842834 192.11404287 38.75390625 202.17700195 C39.29660156 201.89985352 39.83929688 201.62270508 40.3984375 201.3371582 C41.11386719 200.97493164 41.82929688 200.61270508 42.56640625 200.23950195 C43.27410156 199.87985352 43.98179687 199.52020508 44.7109375 199.1496582 C52.08549093 195.63863754 60.95882291 196.23776757 68.56640625 198.80200195 C78.20282359 202.84398252 84.1651494 208.68401121 88.75390625 218.17700195 C88.75390625 219.49700195 88.75390625 220.81700195 88.75390625 222.17700195 C89.80255859 222.15081787 90.85121094 222.12463379 91.93164062 222.09765625 C95.8526443 222.00659764 99.77355612 221.94955287 103.6953125 221.90234375 C105.38687906 221.87732535 107.07833889 221.84329906 108.76953125 221.79980469 C126.17736816 221.36358236 126.17736816 221.36358236 132.75390625 227.17700195 C137.63374251 232.55733424 137.93668568 236.25292456 138.0703125 243.34106445 C138.0910936 244.2482724 138.11187469 245.15548035 138.13328552 246.09017944 C138.1987776 248.99404175 138.25766439 251.897996 138.31640625 254.80200195 C138.3595918 256.76815737 138.4032061 258.73430342 138.44726562 260.70043945 C138.55445864 265.52586558 138.65572706 270.35138436 138.75390625 275.17700195 C139.74390625 275.50700195 140.73390625 275.83700195 141.75390625 276.17700195 C144.1742099 274.66839098 144.1742099 274.66839098 146.69140625 272.42700195 C147.66980469 271.5968457 148.64820313 270.76668945 149.65625 269.91137695 C153.25476416 266.76168284 156.76955599 263.52246366 160.27124023 260.26586914 C164.35820734 256.48273881 168.63349535 252.98078084 172.97265625 249.48950195 C175.99414769 246.97725064 178.87775534 244.3524374 181.75390625 241.67700195 C202.91401771 222.05792467 202.91401771 222.05792467 214.1484375 222.05102539 C215.01033691 222.04721863 215.87223633 222.04341187 216.76025391 222.03948975 C218.14929932 222.03794891 218.14929932 222.03794891 219.56640625 222.03637695 C221.54949052 222.018035 223.53256373 221.99846342 225.515625 221.9777832 C228.62470024 221.94895475 231.73306808 221.92700525 234.84228516 221.92651367 C254.2434438 222.1054624 254.2434438 222.1054624 270.75390625 212.80200195 C277.01303922 205.76618825 279.99291166 198.02079233 280.02133179 188.55607605 C280.02986176 187.26512527 280.03839172 185.9741745 280.04718018 184.644104 C280.04648129 183.23083484 280.0455583 181.81756577 280.04443359 180.40429688 C280.05042401 178.90226408 280.05723073 177.40023435 280.06478882 175.89820862 C280.08240391 171.83194909 280.0871423 167.76577382 280.08842039 163.69947982 C280.08984511 161.15505019 280.09412076 158.61064177 280.09941483 156.06621742 C280.1179003 147.17824577 280.1260873 138.29033399 280.12451172 129.40234375 C280.12331075 121.13564171 280.14440811 112.86920094 280.17599905 104.60256499 C280.20220562 97.48978747 280.21287718 90.37709505 280.2116009 83.26426965 C280.21109255 79.02292546 280.21670511 74.78181362 280.237957 70.54051781 C280.25741351 66.54881578 280.25741375 62.55756598 280.24292374 58.5658474 C280.24084368 57.10744562 280.24548833 55.64901498 280.25764465 54.19066238 C280.35327442 41.91562427 278.47569328 33.12263995 269.90234375 24.0871582 C266.79773858 21.32688197 263.63519288 19.60112423 259.75390625 18.17700195 C258.44763621 17.6664605 258.44763621 17.6664605 257.11497688 17.14560509 C253.31596076 16.05079354 249.83633445 15.89978388 245.92208862 15.92544556 C245.15207649 15.92247542 244.38206436 15.91950528 243.58871853 15.91644514 C241.01854179 15.90883006 238.44859525 15.91528878 235.87841797 15.92163086 C234.03182826 15.91887989 232.18523974 15.91519934 230.33865356 15.91065979 C226.36740392 15.90255723 222.39621056 15.90037691 218.42495346 15.90260696 C212.14760489 15.90544111 205.87036876 15.89108552 199.5930481 15.87362671 C181.74482905 15.82660553 163.89661808 15.8026488 146.04833984 15.79614258 C136.18697706 15.7923961 126.32574187 15.77440306 116.46443379 15.74104822 C110.2217065 15.72079809 103.97930743 15.71848112 97.73656058 15.72932839 C93.85764236 15.73192997 89.97891653 15.71795926 86.10004807 15.69924736 C84.29889119 15.69391191 82.49769918 15.69544516 80.69655609 15.70428276 C78.24116005 15.71536091 75.78707217 15.70202403 73.33175659 15.68252563 C72.2581253 15.69621262 72.2581253 15.69621262 71.16280448 15.71017611 C67.80349258 15.65811959 66.0424116 15.39812711 63.3427906 13.32900047 C61.25452946 10.50064177 60.75390625 8.69490781 60.75390625 5.17700195 C62.27095032 2.52485752 62.27095032 2.52485752 64.75390625 0.17700195 C67.53217444 -0.32412957 69.70382718 -0.49614886 72.48120117 -0.45118713 C73.26427769 -0.45828152 74.0473542 -0.46537591 74.85416031 -0.47268528 C77.48139606 -0.49030422 80.10715987 -0.47214105 82.734375 -0.45410156 C84.61695531 -0.45923925 86.49953082 -0.46651938 88.38209534 -0.4757843 C93.50044987 -0.49433589 98.61828497 -0.48133189 103.73661804 -0.461694 C109.09753025 -0.44531796 114.45840926 -0.45411984 119.81933594 -0.45921326 C128.8313018 -0.4637385 137.84306044 -0.44784537 146.85498047 -0.41992188 C157.25456714 -0.38794581 167.6537784 -0.38785418 178.05339146 -0.40513664 C188.06897724 -0.42104439 198.08442623 -0.41423584 208.1000061 -0.39719963 C212.3549059 -0.39035014 216.60969535 -0.39134022 220.86459351 -0.39874458 C225.88799687 -0.4064489 230.91097753 -0.39414661 235.93430901 -0.36689568 C237.7707996 -0.3600511 239.60732997 -0.35987132 241.44381905 -0.36711121 C258.36915875 -0.42610659 270.75141072 2.65786496 283.50390625 14.48950195 C294.3791018 25.98027461 296.20828573 38.68665346 296.15795898 53.90112305 C296.16367132 55.46931949 296.17063891 57.03751179 296.17875671 58.60569763 C296.19660891 62.83930787 296.19553467 67.07270994 296.18981433 71.30634642 C296.18671062 74.85229547 296.19282809 78.39820522 296.19885308 81.94414866 C296.21287093 90.31574539 296.21136018 98.68724002 296.19995117 107.05883789 C296.18847537 115.66923372 296.20254279 124.27931787 296.22934765 132.88967264 C296.25156495 140.30658313 296.2581284 147.72339621 296.25227123 155.14033759 C296.24891451 159.55941781 296.25123054 163.97829836 296.26852226 168.39735031 C296.28408567 172.5557293 296.27993284 176.7136497 296.26121712 180.87201118 C296.25755691 182.38923243 296.26056385 183.90648838 296.27110291 185.42367744 C296.36523116 200.10673573 293.321786 211.83292941 283.31640625 222.86450195 C282.47078125 223.62762695 281.62515625 224.39075195 280.75390625 225.17700195 C280.26535156 225.65782227 279.77679688 226.13864258 279.2734375 226.6340332 C269.19898548 236.08631004 256.28069052 238.51091585 242.90625 238.3449707 C241.06575002 238.35064453 239.22525424 238.357852 237.38476562 238.36645508 C234.53193179 238.37063128 231.68054367 238.36437693 228.82788086 238.33154297 C216.34757684 237.73760591 216.34757684 237.73760591 205.25 242.4543457 C204.04490752 243.65668648 202.87260954 244.89389082 201.75390625 246.17700195 C200.86960937 246.94786133 199.9853125 247.7187207 199.07421875 248.51293945 C198.34976562 249.18583008 197.6253125 249.8587207 196.87890625 250.55200195 C193.46339077 253.67234943 189.98326485 256.65194331 186.37890625 259.55200195 C182.36565716 262.79651601 178.52961445 266.16433293 174.75390625 269.67700195 C170.06330729 274.03955514 165.22486808 278.15351967 160.23046875 282.16918945 C158.0469261 283.93944327 155.9253607 285.75682718 153.81640625 287.61450195 C148.45829066 292.09782316 144.73196747 292.69179103 137.80078125 292.5480957 C133.25975055 291.99502145 129.86234331 290.5680242 126.75390625 287.17700195 C123.05776223 281.3943642 122.15451696 276.42129932 122.14453125 269.64575195 C122.127995 268.76922974 122.11145874 267.89270752 122.09442139 266.98962402 C122.04624122 264.21867661 122.02463778 261.44827672 122.00390625 258.67700195 C121.97572141 256.78634985 121.94579049 254.89572292 121.9140625 253.00512695 C121.83723551 248.39550737 121.79643919 243.78757252 121.75390625 239.17700195 C111.19390625 238.84700195 100.63390625 238.51700195 89.75390625 238.17700195 C89.42390625 240.15700195 89.09390625 242.13700195 88.75390625 244.17700195 C87.44921875 246.80981445 87.44921875 246.80981445 85.87890625 249.30200195 C85.36585938 250.12958008 84.8528125 250.9571582 84.32421875 251.80981445 C82.87321106 253.99715441 81.3543893 256.09733236 79.75390625 258.17700195 C80.99140625 258.23887695 80.99140625 258.23887695 82.25390625 258.30200195 C90.12887494 260.27074412 96.07852641 266.77780832 100.75390625 273.17700195 C105.45591209 281.51315882 106.06005734 291.15861461 103.56640625 300.30200195 C101.46109821 306.64785936 97.88216037 311.96236517 93.75390625 317.17700195 C94.31078125 317.38454102 94.86765625 317.59208008 95.44140625 317.8059082 C103.93118582 321.23336989 111.49737368 326.87353879 115.75390625 335.17700195 C119.93223277 346.41467853 119.72551115 356.19959865 114.75390625 367.17700195 C109.46811212 375.01587086 102.66072317 381.54754121 95.984375 388.17700195 C94.8553725 389.30480969 93.72674234 390.43299027 92.59846497 391.56152344 C90.25077653 393.90765907 87.89980167 396.25043069 85.54614258 398.59057617 C82.52693795 401.59266467 79.51448635 404.60142235 76.50420666 407.61245728 C74.18228942 409.9341032 71.8577806 412.25313917 69.53237343 414.57128906 C68.41977454 415.68070541 67.30778059 416.79072879 66.1964016 417.90136719 C64.65060646 419.4450016 63.1015695 420.98530382 61.55151367 422.5246582 C60.23083138 423.8396228 60.23083138 423.8396228 58.88346863 425.18115234 C56.06900795 427.81889628 55.23333595 428.14213434 51.31640625 428.42700195 C47.75390625 428.17700195 47.75390625 428.17700195 45.87890625 426.80200195 C43.57742066 423.47763387 43.29173006 421.21778886 43.75390625 417.17700195 C45.3333685 415.0500028 46.75134079 413.44607553 48.64746094 411.64990234 C49.16772858 411.13357742 49.68799622 410.6172525 50.22402954 410.08528137 C51.94456972 408.38418894 53.6850224 406.70503271 55.42578125 405.0246582 C56.62841184 403.84085163 57.82950162 402.65547789 59.02911377 401.46861267 C62.19126717 398.34635774 65.36966287 395.24122069 68.55310059 392.14068604 C73.63743422 387.18567983 78.70197285 382.21066016 83.75656891 377.22533989 C85.51982169 375.49258232 87.29304585 373.77053851 89.06756592 372.04933167 C90.15965542 370.97774678 91.25140876 369.90581916 92.34277344 368.83349609 C92.83333221 368.36314941 93.32389099 367.89280273 93.82931519 367.40820312 C97.77687647 363.49967397 101.19913063 359.11250757 102.25 353.55200195 C102.10315152 347.59974343 101.67798224 342.1790533 97.2890625 337.6730957 C93.15459214 334.12493165 90.55880216 332.96571404 85.19140625 332.73950195 C84.20011719 332.67891602 83.20882813 332.61833008 82.1875 332.5559082 C72.48013632 334.31184771 65.26469527 343.19183449 58.55859375 349.90356445 C57.51559627 350.93944679 56.47230686 351.97503526 55.42874146 353.01034546 C53.26046838 355.16526879 51.09811009 357.3259244 48.93945312 359.49047852 C46.16981685 362.26605975 43.38219801 365.02279758 40.58958244 367.77523232 C38.43803659 369.90099575 36.29799687 372.03805375 34.16113663 374.17856979 C33.13718922 375.20082293 32.10924829 376.21909199 31.07729721 377.23326492 C29.64370571 378.64481613 28.22738669 380.07384566 26.81201172 381.50366211 C26.001987 382.31163239 25.19196228 383.11960266 24.35739136 383.95205688 C22.51684407 386.01410095 22.51684407 386.01410095 22.87527466 388.34408569 C23.71812993 390.36254216 23.71812993 390.36254216 25.75390625 392.17700195 C26.2177335 395.73301086 26.18160304 397.52690283 24.19140625 400.55200195 C20.67142282 402.89865757 18.92279682 402.94129856 14.75390625 402.17700195 C12.94015408 400.87652302 12.94015408 400.87652302 11.05723572 399.16365051 C10.35641813 398.5265597 9.65560055 397.88946888 8.93354607 397.23307228 C5.27697483 393.78380164 1.70019343 390.26219876 -1.84936523 386.703125 C-3.077658 385.47746071 -3.077658 385.47746071 -4.33076477 384.22703552 C-7.01207786 381.55009169 -9.68975475 378.86954516 -12.3671875 376.1887207 C-14.2365126 374.32006967 -16.10598609 372.45156706 -17.9756012 370.58320618 C-21.87998169 366.68063722 -25.78226582 362.77598141 -29.68334961 358.87011719 C-34.19408813 354.35391507 -38.70844861 349.84135744 -43.22466224 345.33063096 C-47.57852432 340.98184684 -51.92957851 336.63026482 -56.27943611 332.27747536 C-58.12835273 330.42789035 -59.97801607 328.5790515 -61.82842827 326.73096275 C-64.40423501 324.15768299 -66.97683593 321.5812414 -69.54858398 319.00390625 C-70.31788239 318.23663208 -71.08718079 317.46935791 -71.87979126 316.67883301 C-72.57639359 315.97941086 -73.27299591 315.27998871 -73.9907074 314.55937195 C-74.59883994 313.95086238 -75.20697248 313.34235281 -75.83353329 312.71540356 C-77.85685199 310.51183294 -78.2309145 309.31665103 -78.55859375 306.30200195 C-78.24609375 303.17700195 -78.24609375 303.17700195 -76.68359375 300.80200195 C-73.34667245 298.57738775 -71.17704082 298.6766996 -67.24609375 299.17700195 C-65.30859375 300.67700195 -65.30859375 300.67700195 -64.24609375 302.17700195 C-61.22717008 300.82295973 -59.12520094 299.30845438 -56.78611755 296.97772217 C-56.12023621 296.31892563 -55.45435486 295.66012909 -54.76829529 294.98136902 C-54.04868118 294.2592775 -53.32906708 293.53718597 -52.58764648 292.79321289 C-51.43820053 291.65143333 -51.43820053 291.65143333 -50.26553345 290.48658752 C-47.731716 287.9666797 -45.20540726 285.43939935 -42.6796875 282.91137695 C-40.92161256 281.1571884 -39.16331377 279.40322416 -37.40480042 277.6494751 C-33.71867424 273.97081426 -30.03645298 270.28829643 -26.35668945 266.60327148 C-21.64222678 261.88210793 -16.91561164 257.17332375 -12.18620205 252.46712875 C-8.55129252 248.84695529 -4.92333815 245.21987399 -1.29734993 241.59076691 C0.44222312 239.85170721 2.18416096 238.11500966 3.92849922 236.38072968 C6.36785456 233.95371718 8.79746796 231.51734534 11.22485352 229.07836914 C11.94649185 228.36437454 12.66813019 227.65037994 13.41163635 226.91474915 C18.88516481 221.38331801 22.17663162 216.7857232 22.25390625 208.73950195 C22.12235723 203.7234805 21.67084132 200.27404188 18.2890625 196.4777832 C13.23333441 192.19392199 8.18224375 191.80409431 1.79296875 191.4855957 C-7.34955619 193.56557888 -14.28882213 201.78973313 -20.64355469 208.1862793 C-21.65091852 209.18956898 -22.65891745 210.19222133 -23.66749573 211.19429016 C-26.3828964 213.89611345 -29.08884083 216.60721996 -31.79267788 219.32060957 C-34.6352059 222.17078206 -37.48510246 225.01357212 -40.33380127 227.85757446 C-45.1135187 232.63184909 -49.88691036 237.41237969 -54.65673828 242.1965332 C-60.1583045 247.7144324 -65.67060682 253.22142901 -71.18859076 258.72290647 C-75.94170662 263.46237647 -80.6889115 268.20770753 -85.43128991 272.95792162 C-88.25689334 275.78818335 -91.08443994 278.61642382 -93.91735077 281.43937302 C-96.58035917 284.09366846 -99.23583254 286.75528567 -101.88584709 289.42255211 C-103.31474576 290.8572611 -104.75097024 292.28466249 -106.18745422 293.71177673 C-114.95484106 302.1227733 -114.95484106 302.1227733 -118.76855469 313.21923828 C-118.20269633 317.50574757 -116.92982686 320.75998401 -114.88671875 324.5012207 C-114.36824371 325.50340385 -114.36824371 325.50340385 -113.83929443 326.52583313 C-112.74006237 328.64707656 -111.62023765 330.75636905 -110.49609375 332.86450195 C-97.41156769 357.56025251 -97.41156769 357.56025251 -97.62109375 371.36450195 C-97.63019775 372.16130371 -97.63930176 372.95810547 -97.64868164 373.77905273 C-98.26940747 390.24206308 -105.60792575 405.13866957 -117.43359375 416.48950195 C-120.00524081 418.54477455 -121.19300213 419.16577103 -124.49609375 419.86450195 C-127.98756002 418.99163539 -129.24383246 418.18039389 -131.24609375 415.17700195 C-132.05859375 412.05200195 -132.05859375 412.05200195 -131.24609375 408.17700195 C-129.20238141 405.66062486 -126.96879833 403.39325928 -124.7109375 401.06762695 C-117.61796771 392.74940565 -114.15048578 382.97051906 -113.93359375 372.11450195 C-113.89621094 370.90665039 -113.85882813 369.69879883 -113.8203125 368.4543457 C-114.43256685 357.17195707 -120.71346342 346.91087167 -125.93359375 337.17700195 C-126.96981129 335.23201222 -128.00329814 333.28567901 -129.03193665 331.33666992 C-129.95524858 329.58899656 -130.88692217 327.84574817 -131.8190918 326.1027832 C-134.93142203 319.72157439 -135.32275771 312.67280144 -133.66796875 305.76293945 C-130.70160102 297.69981262 -125.77521323 290.43289316 -121.24609375 283.17700195 C-120.11558099 281.36504519 -118.98527941 279.55298758 -117.85839844 277.73876953 C-116.86938123 276.14967189 -115.87244478 274.56551086 -114.875 272.98168945 C-111.36554863 266.93903697 -110.54544031 262.09456453 -111.24609375 255.17700195 C-113.27337997 249.2077703 -117.19408865 245.82038932 -122.68359375 242.86450195 C-128.67710553 241.2564866 -132.94692952 242.13892271 -138.3515625 244.8137207 C-142.55416731 247.83786313 -145.07275414 252.38032475 -147.59375 256.80981445 C-148.50157227 258.38956055 -148.50157227 258.38956055 -149.42773438 260.0012207 C-150.68595868 262.20931943 -151.94376841 264.41765445 -153.20117188 266.6262207 C-154.10706055 268.20209961 -154.10706055 268.20209961 -155.03125 269.80981445 C-155.576604 270.76774902 -156.12195801 271.72568359 -156.68383789 272.71264648 C-158.06374303 274.88935573 -159.27373932 276.53477257 -161.24609375 278.17700195 C-164.31426125 278.84399489 -167.16743933 278.77785458 -170.24609375 278.17700195 C-172.37109375 276.11450195 -172.37109375 276.11450195 -173.24609375 273.17700195 C-172.8689684 267.92067099 -171.56299503 264.34836751 -168.89453125 259.83325195 C-168.55741119 259.26046509 -168.22029114 258.68767822 -167.87295532 258.09753418 C-167.16073216 256.89424207 -166.44272744 255.69435493 -165.71923828 254.49780273 C-164.62932831 252.69065544 -163.5636811 250.87077554 -162.5 249.0480957 C-157.68184475 240.90560941 -152.90032664 233.37847658 -144.05859375 229.30200195 C-143.24003906 228.91270508 -142.42148438 228.5234082 -141.578125 228.12231445 C-133.02210295 224.65404421 -123.25925908 224.96987728 -114.74609375 228.36450195 C-106.09677335 232.46517577 -100.16265303 238.22749152 -96.43359375 247.11450195 C-95.00117335 251.22667512 -95.01441349 254.85230372 -95.24609375 259.17700195 C-85.95662999 251.24223005 -77.21684219 242.72346345 -68.49245262 234.17905045 C-65.78213548 231.52562802 -63.06053445 228.88643398 -60.30908203 226.27563477 C-57.62547775 223.72854881 -54.97529731 221.15071987 -52.3452034 218.54845428 C-51.34441028 217.56905362 -50.33242506 216.60094774 -49.30912399 215.6450882 C-47.8810541 214.30710307 -46.49677241 212.92284659 -45.11474609 211.53735352 C-43.91850113 210.37988617 -43.91850113 210.37988617 -42.6980896 209.19903564 C-40.72760135 205.0978656 -41.66706091 202.70285881 -42.64663696 198.3664341 C-43.78158577 192.32789673 -43.53270374 186.19823272 -43.52075195 180.07373047 C-43.52510876 178.5842056 -43.53029511 177.09468296 -43.53623962 175.60516357 C-43.54953546 171.59064882 -43.55021898 167.57622874 -43.54767632 163.56169629 C-43.54660037 160.19713342 -43.55150574 156.83258923 -43.55628175 153.46803039 C-43.56734395 145.52457092 -43.56783264 137.58115875 -43.56176758 129.63769531 C-43.55572753 121.47096606 -43.56804715 113.30440908 -43.58933765 105.1377092 C-43.60700652 98.09870583 -43.61294678 91.05975705 -43.6096999 84.02073234 C-43.60789562 79.82861412 -43.61043734 75.63661887 -43.62441444 71.44452095 C-43.637075 67.50041969 -43.63497181 63.55658539 -43.62200356 59.61248779 C-43.61965617 58.17427921 -43.62230562 56.73605134 -43.63062668 55.29786491 C-43.71378848 39.79343601 -40.8036703 25.53444836 -29.99609375 13.7980957 C-21.89491901 6.29365928 -11.29036591 0.15326537 0 0 Z " fill="#020101" transform="translate(216.24609375,-0.177001953125)"/>
<path d="M0 0 C2.3125 1.6875 2.3125 1.6875 4 4 C4.52870067 8.93193513 3.4244542 11.71180867 0.9296875 15.9296875 C-0.04037231 17.60514648 -0.04037231 17.60514648 -1.0300293 19.31445312 C-1.37286957 19.89590088 -1.71570984 20.47734863 -2.06893921 21.07641602 C-8.10838848 31.36224126 -13.7194444 41.46437357 -17 53 C-17.30236572 54.04003174 -17.30236572 54.04003174 -17.61083984 55.10107422 C-26.07787252 85.26612916 -20.91978787 117.92799934 -5.78540039 145.06469727 C-1.06715611 153.11309661 4.73487191 160.11799776 11 167 C11.56976563 167.65226563 12.13953125 168.30453125 12.7265625 168.9765625 C22.65526013 179.7199225 35.77969954 187.12354002 49 193 C50.06605469 193.48210937 51.13210937 193.96421875 52.23046875 194.4609375 C79.50025702 205.86655236 111.04525246 205.00901323 138.375 194.3125 C156.082307 186.95049465 169.89300691 176.35816887 183.19140625 162.671875 C184.01886353 161.82538391 184.01886353 161.82538391 184.86303711 160.96179199 C187.66908676 158.09061277 190.45405398 155.20384304 193.20654297 152.28125 C194.25026807 151.2024391 195.29467368 150.12428605 196.33984375 149.046875 C197.03926842 148.2836795 197.03926842 148.2836795 197.75282288 147.50506592 C200.41706219 144.800608 201.85080202 144.0180822 205.66625977 143.55566406 C209 144 209 144 212 146.0625 C214 149 214 149 214.01269531 152.25268555 C212.68963064 157.14847138 210.37997435 159.43799753 206.796875 162.89453125 C206.16324036 163.52679123 205.52960571 164.15905121 204.87677002 164.81047058 C203.53201219 166.14618281 202.17998762 167.47461353 200.82128906 168.79614258 C198.78293515 170.7804383 196.76892739 172.7869713 194.7578125 174.79882812 C165.54378013 203.77477411 132.76061352 218.32546267 91.47680664 218.3190918 C80.27115309 218.25503788 69.79106339 217.07198226 59 214 C57.99960693 213.72712158 57.99960693 213.72712158 56.97900391 213.44873047 C36.87218657 207.84206997 19.3816273 196.8717449 4 183 C3.06027344 182.15695312 2.12054688 181.31390625 1.15234375 180.4453125 C-11.19099837 168.75909794 -20.16768746 154.47862257 -27 139 C-27.48082031 137.91332031 -27.96164063 136.82664062 -28.45703125 135.70703125 C-39.31560619 109.29871455 -40.66226178 77.41939072 -33 50 C-32.69578125 48.79085937 -32.3915625 47.58171875 -32.078125 46.3359375 C-27.51414656 30.50244307 -18.75133007 12.54431807 -8 0 C-4.61786861 -1.12737713 -3.35228621 -1.06292002 0 0 Z " fill="#010100" transform="translate(37,294)"/>
<path d="M0 0 C4.70600486 2.78321556 8.24375994 6.10080112 10.71875 11.05078125 C10.86764211 12.96347221 10.9401192 14.8825175 10.96875 16.80078125 C10.99453125 17.826875 11.0203125 18.85296875 11.046875 19.91015625 C10.44664215 25.65524212 7.48655032 29.65509254 3.64233398 33.80419922 C2.44469925 35.09822662 2.44469925 35.09822662 1.22286987 36.418396 C-2.8173859 40.66560071 -6.91635916 44.84839822 -11.05859375 48.99609375 C-11.95115372 49.89198212 -12.84371368 50.78787048 -13.76332092 51.71090698 C-15.63005408 53.58266102 -17.4981054 55.4531013 -19.36743164 57.32226562 C-21.76552702 59.72025802 -24.15658711 62.12514213 -26.54608822 64.53169441 C-28.8374563 66.83678938 -31.1359476 69.13475912 -33.43359375 71.43359375 C-34.29186264 72.29904816 -35.15013153 73.16450256 -36.03440857 74.05618286 C-36.82605911 74.84475677 -37.61770966 75.63333069 -38.43334961 76.44580078 C-39.13012314 77.14399933 -39.82689667 77.84219788 -40.54478455 78.56155396 C-42.28125 80.05078125 -42.28125 80.05078125 -44.28125 80.05078125 C-44.28125 80.71078125 -44.28125 81.37078125 -44.28125 82.05078125 C-45.85546875 83.6015625 -45.85546875 83.6015625 -47.96875 85.36328125 C-51.25035029 88.11339825 -54.26191266 91.01440624 -57.28125 94.05078125 C-58.41307968 95.17863852 -59.54561408 96.30578886 -60.67871094 97.43237305 C-64.07088191 100.80679976 -67.46004347 104.18423132 -70.84814453 107.56274414 C-72.30982714 109.01935941 -73.77240032 110.47508152 -75.23583984 111.92993164 C-77.35227339 114.03428887 -79.46550768 116.14181248 -81.578125 118.25 C-82.2353656 118.90207932 -82.8926062 119.55415863 -83.56976318 120.22599792 C-84.1741925 120.83035172 -84.77862183 121.43470551 -85.40136719 122.05737305 C-85.93477722 122.58856247 -86.46818726 123.11975189 -87.01776123 123.66703796 C-88.39287779 125.04666099 -88.39287779 125.04666099 -89.28125 127.05078125 C-93.18976199 125.46646672 -95.80492356 122.7844303 -98.703125 119.82421875 C-99.20797424 119.31653961 -99.71282349 118.80886047 -100.23297119 118.28579712 C-101.83717096 116.67044283 -103.43425856 115.04825916 -105.03125 113.42578125 C-106.12063107 112.32636427 -107.2104699 111.22740066 -108.30078125 110.12890625 C-110.96626885 107.44142105 -113.62540143 104.74779104 -116.28125 102.05078125 C-114.82745593 98.71454566 -112.99868555 96.51505248 -110.43658447 93.94541931 C-109.23382874 92.73203636 -109.23382874 92.73203636 -108.0067749 91.49414062 C-107.12572083 90.61556396 -106.24466675 89.7369873 -105.33691406 88.83178711 C-104.40991699 87.89967911 -103.48291992 86.96757111 -102.52783203 86.00721741 C-99.98695049 83.45295111 -97.43970587 80.9051221 -94.89085865 78.35880733 C-92.76191048 76.23092941 -90.63594764 74.10008114 -88.50993133 71.96927458 C-83.49269309 66.94094254 -78.47014653 61.91795621 -73.44433594 56.89819336 C-68.2642261 51.72412137 -63.09335546 46.54094613 -57.9269278 41.35321516 C-53.48723699 36.89589388 -49.04174482 32.44441718 -44.59160399 27.99752909 C-41.93546208 25.34319817 -39.2815821 22.68670225 -36.63330841 20.02451897 C-33.67835236 17.05462481 -30.71139372 14.09700887 -27.74316406 11.14038086 C-26.43372833 9.81947952 -26.43372833 9.81947952 -25.09783936 8.47189331 C-17.94917136 1.38489298 -10.34515529 -4.3045766 0 0 Z " fill="#FBCFA2" transform="translate(280.28125,212.94921875)"/>
<path d="M0 0 C4.47388647 3.30678565 6.92917944 5.32465103 8 11 C8.95279532 17.8090007 7.97371084 21.85882076 4.05633545 27.43399048 C0.31045375 32.1083096 -3.9686458 36.23778912 -8.26456833 40.39836693 C-9.9957785 42.07674652 -11.71557462 43.76610685 -13.43276978 45.45881653 C-18.31042066 50.26363303 -23.20526881 55.05065643 -28.11279297 59.82495117 C-31.12796543 62.75978743 -34.12836601 65.7090702 -37.12016678 68.66771889 C-38.25883278 69.78778893 -39.40315659 70.90213774 -40.55320358 72.01051903 C-42.15662762 73.55628177 -43.74069108 75.11967516 -45.32177734 76.68823242 C-46.22745453 77.57153732 -47.13313171 78.45484222 -48.06625366 79.36491394 C-50.39483308 82.5380329 -50.45923447 84.14909898 -50 88 C-49.77836182 88.71704102 -49.55672363 89.43408203 -49.32836914 90.17285156 C-49 92 -49 92 -50.07983398 93.64746094 C-50.62969971 94.17114258 -51.17956543 94.69482422 -51.74609375 95.234375 C-52.63071289 96.09482422 -52.63071289 96.09482422 -53.53320312 96.97265625 C-54.16162109 97.55917969 -54.79003906 98.14570313 -55.4375 98.75 C-56.06205078 99.35199219 -56.68660156 99.95398438 -57.33007812 100.57421875 C-58.87578596 102.0609301 -60.4365232 103.5319865 -62 105 C-62.99 104.67 -63.98 104.34 -65 104 C-68.24857716 103.56675957 -70.79745589 103.22695816 -73.65045166 105.06097412 C-75.38940037 106.62864816 -76.98095375 108.27298321 -78.5703125 109.9921875 C-79.17326141 110.61215607 -79.77621033 111.23212463 -80.39743042 111.87088013 C-82.32400862 113.85632643 -84.22558987 115.86357586 -86.125 117.875 C-111.19948978 144.16820852 -139.60674359 161.42809577 -176.76953125 162.46826172 C-201.28466502 162.70014235 -223.38308066 156.26700086 -244 143 C-244.33 142.34 -244.66 141.68 -245 141 C-244.02804688 141.27585937 -243.05609375 141.55171875 -242.0546875 141.8359375 C-241.40983398 142.01866211 -240.76498047 142.20138672 -240.10058594 142.38964844 C-238.72443723 142.78950569 -237.35236598 143.20373945 -235.98535156 143.63378906 C-223.97171646 147.37793637 -212.49982332 148.47926552 -200 148.4375 C-198.95419769 148.43728851 -198.95419769 148.43728851 -197.88726807 148.43707275 C-185.02987146 148.39432196 -172.87890157 147.07962529 -160.6875 142.875 C-159.79305176 142.57005615 -158.89860352 142.2651123 -157.97705078 141.95092773 C-128.34853705 131.53684059 -107.51693896 109.83463313 -85.80507445 88.07372546 C-82.82174691 85.08527474 -79.8334753 82.10177372 -76.84602356 79.1174469 C-71.84582256 74.12086115 -66.84980236 69.12012438 -61.85620117 64.11694336 C-56.08392385 58.33372042 -50.30438864 52.55782561 -44.5211603 46.7855553 C-39.53717955 41.81063926 -34.55709202 36.83185115 -29.58026296 31.84978062 C-26.61523151 28.88163338 -23.64887003 25.91484929 -20.67897606 22.9515667 C-17.8975729 20.1759267 -15.12108082 17.39546705 -12.34835625 14.61115837 C-11.32976195 13.58991479 -10.309453 12.57037819 -9.28733444 11.5526619 C-7.89565694 10.16642874 -6.51070807 8.77345017 -5.12614441 7.38011169 C-4.34882052 6.60203376 -3.57149664 5.82395582 -2.77061749 5.02229977 C-0.79447941 3.02845828 -0.79447941 3.02845828 0 0 Z " fill="#FCBB84" transform="translate(311,335)"/>
<path d="M0 0 C1.09149101 -0.00929787 1.09149101 -0.00929787 2.20503235 -0.01878357 C3.74401516 -0.02587594 5.28307479 -0.0227177 6.82202148 -0.01000977 C9.15170802 0.00376392 11.47729908 -0.03010061 13.80664062 -0.06835938 C23.55256062 -0.11993617 30.26947217 1.0552323 37.79296875 7.55859375 C43.44424486 14.33450193 46.02208263 19.9193059 45.7890625 28.84765625 C45.34936988 32.82202069 44.09264086 35.90846634 42.48828125 39.56640625 C41.60711109 41.53742131 41.60711109 41.53742131 41.48828125 43.56640625 C42.77556432 45.27205026 42.77556432 45.27205026 44.67578125 46.75390625 C50.6154119 52.37279684 52.69109094 57.84555291 52.98828125 66.00390625 C52.6993609 74.25739744 50.32130563 81.87651109 44.40209961 87.85546875 C35.1903332 96.09071037 25.98050063 96.46307073 14.21557617 96.23876953 C11.53119104 96.19105806 8.8507246 96.19774243 6.16601562 96.2109375 C4.45179928 96.1997972 2.73759952 96.18558578 1.0234375 96.16796875 C0.22551285 96.16979156 -0.5724118 96.17161438 -1.39451599 96.17349243 C-4.66324144 96.08984834 -6.98611776 95.92589364 -9.72059631 94.05563354 C-12.23853609 90.55630581 -12.07170267 87.34181909 -12.02929688 83.18945312 C-12.03630615 82.34673355 -12.04331543 81.50401398 -12.05053711 80.63575745 C-12.0681332 77.85188789 -12.05648884 75.06903603 -12.04296875 72.28515625 C-12.0456632 70.34989222 -12.04954524 68.41462951 -12.05456543 66.47937012 C-12.06046266 62.42410387 -12.05189025 58.36919011 -12.03320312 54.31396484 C-12.01041349 49.11497693 -12.02353536 43.91681496 -12.04749298 38.71785736 C-12.06194485 34.72184014 -12.05734777 30.72601884 -12.04698181 26.72999573 C-12.04431284 24.81303306 -12.04759027 22.89605263 -12.05690002 20.97911072 C-12.06705557 18.30004742 -12.05157902 15.62232291 -12.02929688 12.94335938 C-12.0373938 12.15051041 -12.04549072 11.35766144 -12.05383301 10.54078674 C-11.99958011 7.02110608 -11.79607563 4.95594365 -9.69389343 2.07618713 C-6.57978873 -0.07836804 -3.65795625 -0.02611141 0 0 Z " fill="#030101" transform="translate(254.51171875,70.43359375)"/>
<path d="M0 0 C11.98654716 -0.62994992 20.95096263 0.27163553 30.375 8.125 C35.95241876 13.48074075 40.74575091 20.80312347 41.13422108 28.74349213 C41.13849456 29.8620887 41.14276804 30.98068527 41.14717102 32.13317871 C41.15432632 33.41718567 41.16148163 34.70119263 41.16885376 36.02410889 C41.17169407 37.45031714 41.17440579 38.87652566 41.17700195 40.30273438 C41.18326762 41.80255287 41.18991451 43.30236981 41.19691467 44.80218506 C41.21795456 49.73269572 41.22832062 54.66320666 41.23828125 59.59375 C41.24232958 61.29327918 41.24644652 62.99280819 41.25063133 64.69233704 C41.26968703 72.68163043 41.28391427 80.67091459 41.2922433 88.66022635 C41.30200153 97.86765754 41.32828234 107.07484743 41.36874419 116.28219366 C41.39897284 123.40678527 41.41371877 130.53130801 41.41702431 137.65596247 C41.41936816 141.90691491 41.42824059 146.15760969 41.45348549 150.40849304 C41.47688807 154.41407788 41.48095099 158.41923768 41.47072411 162.42487335 C41.47023149 163.88769704 41.47647022 165.35054251 41.49028015 166.81330109 C41.6053779 179.73760151 39.62211445 189.34861757 30.515625 198.83203125 C23.61460879 204.77933559 16.28338835 207.17139033 7.3125 207.0625 C6.61060547 207.05798828 5.90871094 207.05347656 5.18554688 207.04882812 C3.45699462 207.03706927 1.72848635 207.01913454 0 207 C1.14275391 205.89011719 1.14275391 205.89011719 2.30859375 204.7578125 C13.07975965 193.72088488 15.61087582 181.69304178 15.48583984 166.66552734 C15.48799032 165.15142998 15.49187485 163.63733425 15.49734497 162.12324524 C15.50696945 158.04267838 15.49182307 153.96255475 15.47143888 149.88204145 C15.45375904 145.59548996 15.45739505 141.30894992 15.4581604 137.02236938 C15.45629253 129.8286404 15.43899671 122.63508105 15.41162109 115.44140625 C15.38015191 107.14172047 15.36962607 98.84222006 15.3710922 90.54247892 C15.37244625 81.67793546 15.3585498 72.81346278 15.34019899 63.94894075 C15.33595047 61.40619796 15.33451858 58.86346669 15.33372116 56.32072067 C15.33170227 52.31673417 15.31941167 48.31290134 15.29938889 44.30896568 C15.29358122 42.84531916 15.2910795 41.38165494 15.29224396 39.91799736 C15.29874551 26.76358563 14.21645674 15.96847227 5.05078125 5.84765625 C3.82874418 4.63553428 2.58706974 3.44265073 1.3203125 2.27734375 C0.88460938 1.85582031 0.44890625 1.43429688 0 1 C0 0.67 0 0.34 0 0 Z " fill="#FD636E" transform="translate(456,15)"/>
<path d="M0 0 C4.50469018 4.38294179 7.14371954 7.74687527 7.3125 14.125 C7.36857422 15.49011719 7.36857422 15.49011719 7.42578125 16.8828125 C6.34257939 24.81304266 1.40889757 30.1787796 -4.09179688 35.62524414 C-4.79796646 36.3400293 -5.50413605 37.05481445 -6.23170471 37.79125977 C-8.55067477 40.13279282 -10.88393389 42.45943133 -13.21875 44.78515625 C-14.84064168 46.41228474 -16.46201265 48.0399324 -18.08288574 49.66807556 C-21.47230475 53.06787865 -24.86906973 56.46012586 -28.27099609 59.84741211 C-32.63788402 64.19704525 -36.98398856 68.56680673 -41.32466888 72.9425745 C-44.66320876 76.30301742 -48.01329688 79.65175329 -51.36695862 82.99709892 C-52.9751951 84.60451336 -54.57957058 86.21580015 -56.18003845 87.83094978 C-58.41100321 90.0792438 -60.6571943 92.31110629 -62.90820312 94.53930664 C-63.57014175 95.21293747 -64.23208038 95.8865683 -64.91407776 96.58061218 C-65.52802902 97.18190948 -66.14198029 97.78320679 -66.77453613 98.40272522 C-67.30398079 98.93158357 -67.83342545 99.46044191 -68.37891388 100.00532627 C-70 101 -70 101 -72.04125214 100.80138302 C-75.11335373 99.5444933 -77.15157055 97.21426158 -79.421875 94.87109375 C-80.17914886 94.10745262 -80.17914886 94.10745262 -80.95172119 93.3283844 C-82.55833979 91.7050088 -84.15419822 90.071503 -85.75 88.4375 C-86.83914984 87.3332995 -87.92898605 86.22977555 -89.01953125 85.12695312 C-91.6877076 82.4257471 -94.34628291 79.71540937 -97 77 C-95.67834289 74.07771124 -94.24741053 71.99409583 -91.99053955 69.72311401 C-91.0654509 68.78523041 -91.0654509 68.78523041 -90.12167358 67.82839966 C-89.44633575 67.1539682 -88.77099792 66.47953674 -88.07519531 65.78466797 C-87.36277679 65.06553223 -86.65035828 64.34639648 -85.91635132 63.60546875 C-83.55891732 61.22903162 -81.19400364 58.86021576 -78.828125 56.4921875 C-77.18610957 54.8437462 -75.54424559 53.19515402 -73.90252686 51.54641724 C-70.45941766 48.09132977 -67.01219534 44.64040552 -63.5625 41.19189453 C-59.14269796 36.77229581 -54.73681481 32.33909926 -50.33436966 27.90221977 C-46.94743543 24.49305045 -43.55145204 21.09300799 -40.15285492 17.6954689 C-38.52454987 16.06480323 -36.89948818 14.43089221 -35.27774811 12.79369736 C-33.0086761 10.5050338 -30.72728535 8.22938721 -28.44238281 5.95654297 C-27.77514191 5.27806305 -27.107901 4.59958313 -26.42044067 3.90054321 C-18.73652498 -3.68072969 -9.61481787 -5.51961767 0 0 Z " fill="#FCD0A3" transform="translate(298,275)"/>
<path d="M0 0 C0.33 0 0.66 0 1 0 C1.00586624 1.05822464 1.01173248 2.11644928 1.01777649 3.20674133 C1.07493473 13.16878702 1.14765995 23.13061296 1.23571491 33.09243488 C1.28048467 38.21419522 1.31972612 43.33587479 1.34643555 48.45776367 C1.37240275 53.39864198 1.41275813 58.33921059 1.46318626 63.27989769 C1.47989965 65.1669448 1.49138599 67.05404554 1.49761391 68.94115639 C1.50720656 71.57999944 1.53520689 74.21804211 1.56762695 76.85668945 C1.56619186 77.6407164 1.56475677 78.42474335 1.5632782 79.23252869 C1.62265649 83.33231832 1.62265649 83.33231832 3.30493164 86.98193359 C6.2645425 88.75949046 9.59139158 88.48311416 12.94921875 88.51171875 C14.10814384 88.53864555 14.10814384 88.53864555 15.29048157 88.56611633 C17.756099 88.62026104 20.22152243 88.65412731 22.6875 88.6875 C24.36005306 88.72066952 26.03258051 88.75515885 27.70507812 88.79101562 C31.8032455 88.87598949 35.90135494 88.9427802 40 89 C40 89.33 40 89.66 40 90 C27.625 90.495 27.625 90.495 15 91 C20.82881134 98.15399311 20.82881134 98.15399311 25.76953125 98.69140625 C27.11774556 98.67291702 28.46579158 98.62883326 29.8125 98.5625 C45.53445627 98.68595265 58.67268 104.41952947 70.1953125 115.01953125 C78.55771461 123.58860869 82.68919251 133.2027326 84 145 C77.07 145 70.14 145 63 145 C61.515 141.04 61.515 141.04 60 137 C55.6934762 129.03091857 48.86119346 125.01785389 40.6875 121.625 C30.94318817 119.97342172 22.85863757 120.52575912 14 125 C13.01 125.495 13.01 125.495 12 126 C11.72027344 125.2265625 11.44054687 124.453125 11.15234375 123.65625 C7.06868337 113.04661145 2.69483309 106.70182572 -7.765625 101.91015625 C-15.00700636 98.96043272 -24.14918265 98.804376 -31.7734375 100.68359375 C-39.8857697 104.11354473 -46.40793732 110.31702821 -53 116 C-53.29110292 111.45969019 -53.4682147 106.92177372 -53.625 102.375 C-53.70878906 101.08980469 -53.79257813 99.80460937 -53.87890625 98.48046875 C-53.97559782 94.74817424 -53.93185463 91.61892462 -53 88 C-50.07394029 84.93022966 -46.9282707 83.48995707 -43 82 C-41.91332031 81.51789063 -40.82664063 81.03578125 -39.70703125 80.5390625 C-26.37591443 76.32923614 -12.94480887 76.82207645 0 82 C0 54.94 0 27.88 0 0 Z " fill="#FA636E" transform="translate(242,77)"/>
<path d="M0 0 C0.80763794 -0.01260864 1.61527588 -0.02521729 2.4473877 -0.03820801 C3.31101929 -0.03011108 4.17465088 -0.02201416 5.06445312 -0.01367188 C5.95934448 -0.01749878 6.85423584 -0.02132568 7.77624512 -0.02526855 C9.66578295 -0.02798708 11.55535844 -0.02063003 13.44482422 -0.00390625 C16.33581502 0.01750489 19.22432079 -0.00370921 22.11523438 -0.02929688 C23.95247944 -0.02665359 25.78972296 -0.02152859 27.62695312 -0.01367188 C28.92240051 -0.02581726 28.92240051 -0.02581726 30.24401855 -0.03820801 C36.20774055 0.05489614 36.20774055 0.05489614 39.390625 2.36328125 C41.38610046 5.31765632 41.42805008 7.02349639 40.84570312 10.51757812 C38.97860402 12.82033369 37.48922571 14.19581683 34.84570312 15.51757812 C32.74041379 15.60301708 30.63239155 15.62472537 28.52539062 15.61523438 C27.26855469 15.61201172 26.01171875 15.60878906 24.71679688 15.60546875 C23.39808594 15.59708984 22.079375 15.58871094 20.72070312 15.58007812 C19.38086101 15.57506302 18.04101712 15.57050013 16.70117188 15.56640625 C13.41599656 15.55458907 10.13084432 15.53665314 6.84570312 15.51757812 C6.84570312 23.76757812 6.84570312 32.01757812 6.84570312 40.51757812 C8.66457031 40.47117188 10.4834375 40.42476562 12.35742188 40.37695312 C14.74933254 40.33943296 17.14126096 40.30303306 19.53320312 40.26757812 C20.73138672 40.2340625 21.92957031 40.20054688 23.1640625 40.16601562 C24.32099609 40.153125 25.47792969 40.14023438 26.66992188 40.12695312 C28.26453247 40.09553223 28.26453247 40.09553223 29.89135742 40.06347656 C33.5995893 40.63345518 35.24038755 41.85751037 37.84570312 44.51757812 C38.40820312 48.01757812 38.40820312 48.01757812 37.84570312 51.51757812 C35.67547253 54.41853478 34.53098244 55.41146594 30.91308594 55.97167969 C29.80288086 55.95073242 28.69267578 55.92978516 27.54882812 55.90820312 C26.34355469 55.8953125 25.13828125 55.88242188 23.89648438 55.86914062 C22.64222656 55.835625 21.38796875 55.80210938 20.09570312 55.76757812 C18.82597656 55.74953125 17.55625 55.73148438 16.24804688 55.71289062 C13.11361054 55.66575624 9.97956183 55.5940137 6.84570312 55.51757812 C6.84570312 64.09757812 6.84570312 72.67757812 6.84570312 81.51757812 C8.96492188 81.47117187 11.08414062 81.42476563 13.26757812 81.37695312 C15.32614753 81.34573444 17.38469029 81.32146015 19.44335938 81.29785156 C20.87121434 81.2777683 22.29898737 81.2504956 23.7265625 81.21582031 C25.78210681 81.16715144 27.83656168 81.14457845 29.89257812 81.12695312 C31.1284668 81.10600586 32.36435547 81.08505859 33.63769531 81.06347656 C36.84570312 81.51757812 36.84570312 81.51757812 39.24121094 83.35839844 C40.84570312 85.51757812 40.84570312 85.51757812 41.47070312 88.45507812 C40.75018576 91.98561321 39.49385279 93.26931677 36.69851685 95.4677124 C33.31775452 97.3833645 29.92813802 97.23072849 26.12304688 97.18164062 C24.88839439 97.18881607 24.88839439 97.18881607 23.62879944 97.19613647 C21.89663775 97.19952488 20.16441119 97.19039672 18.43237305 97.16943359 C15.78679599 97.14261455 13.14544735 97.16923093 10.5 97.20117188 C8.81183964 97.19786825 7.1236819 97.191463 5.43554688 97.18164062 C4.64897202 97.19176178 3.86239716 97.20188293 3.05198669 97.21231079 C2.31094193 97.19654999 1.56989716 97.18078918 0.80639648 97.16455078 C0.16053085 97.16057281 -0.48533478 97.15659485 -1.15077209 97.15249634 C-4.54072331 96.07821875 -6.01187014 94.31278018 -8.15429688 91.51757812 C-8.6438173 88.49623511 -8.83007271 86.04259627 -8.78540039 83.02709961 C-8.79255569 82.18423401 -8.799711 81.34136841 -8.80708313 80.47296143 C-8.82395552 77.69430913 -8.80457839 74.91727342 -8.78320312 72.13867188 C-8.78403188 70.20483771 -8.78649152 68.27100362 -8.79051208 66.33717346 C-8.79336898 62.28779859 -8.77867802 58.23897718 -8.7512207 54.18969727 C-8.71711535 48.99855699 -8.72316475 43.80840484 -8.74188328 38.61721706 C-8.75244926 34.62547056 -8.74351948 30.63395418 -8.72849846 26.64222908 C-8.72331477 24.72806545 -8.72380071 22.8138778 -8.73004341 20.89971733 C-8.73549168 18.22550597 -8.71513458 15.55271197 -8.68774414 12.87866211 C-8.69427002 12.08738419 -8.7007959 11.29610626 -8.70751953 10.48085022 C-8.64680292 6.99609633 -8.42686614 4.90025748 -6.38059998 2.02735901 C-3.97851813 0.39837271 -2.86374546 0.01288286 0 0 Z " fill="#040202" transform="translate(402.154296875,70.482421875)"/>
<path d="M0 0 C5.32257087 4.29445034 8.50984249 10.24341391 12.0625 16 C13.27982291 17.96003099 14.49979392 19.91842027 15.72265625 21.875 C16.25640869 22.73867187 16.79016113 23.60234375 17.34008789 24.4921875 C19.08495864 27.1283564 20.99113625 29.56084108 23 32 C23.32162109 31.48203857 23.64324219 30.96407715 23.97460938 30.43041992 C39.47369968 5.52630032 39.47369968 5.52630032 45 0 C47.8125 -0.4375 47.8125 -0.4375 51 0 C53.875 2.1875 53.875 2.1875 56 5 C56.56980955 9.2634436 55.4239405 11.48356945 53.0703125 14.9921875 C52.43867188 15.94609375 51.80703125 16.9 51.15625 17.8828125 C50.4859375 18.87023437 49.815625 19.85765625 49.125 20.875 C48.49335938 21.82375 47.86171875 22.7725 47.2109375 23.75 C46.24414062 25.20019531 46.24414062 25.20019531 45.2578125 26.6796875 C44.25306885 28.2109729 44.25306885 28.2109729 43.22802734 29.77319336 C41.64015947 32.07287007 40.0602526 34.17765769 38.29150391 36.32250977 C29.74502337 47.09891303 29.72450839 56.80590534 30.125 70.1875 C30.17899183 73.11294148 30.21839771 76.03732227 30.23605347 78.96321106 C30.25024188 80.76765679 30.28687588 82.57210747 30.34915161 84.37553406 C30.44189589 90.37353064 30.44189589 90.37353064 28.20263672 93.5480957 C24.97088767 95.67835635 22.78152191 95.54021742 19 95 C16.78637695 93.53051758 16.78637695 93.53051758 15 91 C14.5488073 87.98845486 14.75157896 85.04397885 14.91796875 82.01171875 C14.96927234 80.18283194 15.01538104 78.35379364 15.05688477 76.5246582 C15.08114532 75.57048004 15.10540588 74.61630188 15.13040161 73.63320923 C15.50253836 54.43465257 13.86380924 42.21695848 0.93408203 27.29589844 C-2.06826342 23.7318923 -4.52989615 19.88008681 -7 15.9375 C-7.42659912 15.31141846 -7.85319824 14.68533691 -8.29272461 14.0402832 C-10.25449548 11.01918116 -11.01759526 9.32474729 -10.8203125 5.68359375 C-9.00118626 -0.26754782 -6.04673933 -0.83403301 0 0 Z " fill="#030101" transform="translate(323,71)"/>
<path d="M0 0 C3.67125 -0.061875 7.3425 -0.12375 11.125 -0.1875 C12.84420654 -0.22846802 12.84420654 -0.22846802 14.59814453 -0.27026367 C20.13399307 -0.31540079 24.2742535 -0.24270736 29 3 C32.872059 7.29065997 34.37338593 9.96669334 34.27734375 15.8359375 C33.78108228 19.70817486 32.34285473 21.85564234 30 25 C24.3322985 29.02705107 18.27173017 28.33898861 11.625 28.1875 C7.78875 28.125625 3.9525 28.06375 0 28 C0 18.76 0 9.52 0 0 Z " fill="#FB7F86" transform="translate(258,123)"/>
<path d="M0 0 C3.196875 -0.0825 6.39375 -0.165 9.6875 -0.25 C10.68612061 -0.28641602 11.68474121 -0.32283203 12.71362305 -0.36035156 C16.92055677 -0.41291174 19.3509498 -0.39295666 23.01953125 1.828125 C25.65338379 4.71653134 26.92917614 6.37438925 27.375 10.3125 C26.92925812 14.69562848 25.85871434 16.67771036 23 20 C18.41094708 22.58134227 13.79117602 22.22892205 8.6875 22.125 C5.820625 22.08375 2.95375 22.0425 0 22 C0 14.74 0 7.48 0 0 Z " fill="#F97E85" transform="translate(258,86)"/>
</svg>
